<?xml version="1.0" encoding="utf-8"?>
<svg xmlns="http://www.w3.org/2000/svg" style="margin: auto; background: rgba(0, 0, 0, 0) none repeat scroll 0% 0%; display: block; shape-rendering: auto;" width="280" height="250" preserveAspectRatio="xMidYMid">
<style type="text/css">
  text {
    text-anchor: middle; font-size: 46px; opacity: 0;
  }
</style>
<g style="transform-origin: 140px 125px 0px; transform: scale(1.15);">
<g transform="translate(140,125)">
  <g transform="translate(0,0)"><g class="path" style="transform: scale(0.91); transform-origin: -85.4941px -3.53125px 0px; animation: 1s linear -0.594s infinite normal forwards running breath-b3c5fc05-469f-4a8f-8163-0fdf22a57ad4;"><path d="M25.96 0L25.96-23.16L18.48-6.32L14.72-6.32L7.20-23.16L7.20 0L3.60 0L3.60-28L8.92-28L16.68-10.28L24.32-28L29.76-28L29.76 0L25.96 0" fill="#4284d3" stroke="none" stroke-width="none" transform="translate(-102.17501068115234,10.468993621826169)" style="fill: rgb(66, 132, 211);"></path></g><g class="path" style="transform: scale(0.91); transform-origin: -55.2754px -3.45117px 0px; animation: 1s linear -0.528s infinite normal forwards running breath-b3c5fc05-469f-4a8f-8163-0fdf22a57ad4;"><path d="M56.84-1.20L53.28 0.48L49.80-7.12L49.80-7.12Q48.48-9.96 46.48-11.16L46.48-11.16L46.48-11.16Q44.48-12.36 41.36-12.36L41.36-12.36L40.76-12.36L40.76 0L36.96 0L36.96-27.92L36.96-27.92Q39.12-28.12 41.02-28.22L41.02-28.22L41.02-28.22Q42.92-28.32 45.16-28.32L45.16-28.32L45.16-28.32Q47.72-28.32 49.64-27.78L49.64-27.78L49.64-27.78Q51.56-27.24 52.84-26.24L52.84-26.24L52.84-26.24Q54.12-25.24 54.78-23.88L54.78-23.88L54.78-23.88Q55.44-22.52 55.44-20.88L55.44-20.88L55.44-20.88Q55.44-17.96 53.70-16.18L53.70-16.18L53.70-16.18Q51.96-14.40 48.68-13.52L48.68-13.52L48.68-13.52Q49.48-13.16 50.16-12.70L50.16-12.70L50.16-12.70Q50.84-12.24 51.44-11.58L51.44-11.58L51.44-11.58Q52.04-10.92 52.62-10L52.62-10L52.62-10Q53.20-9.08 53.80-7.76L53.80-7.76L56.84-1.20zM45.16-25.12L45.16-25.12L45.16-25.12Q43.80-25.12 42.72-25.08L42.72-25.08L42.72-25.08Q41.64-25.04 40.76-24.96L40.76-24.96L40.76-15.56L45.16-15.56L45.16-15.56Q48.04-15.56 49.84-16.84L49.84-16.84L49.84-16.84Q51.64-18.12 51.64-20.52L51.64-20.52L51.64-20.52Q51.64-22.52 49.96-23.82L49.96-23.82L49.96-23.82Q48.28-25.12 45.16-25.12" fill="#4284d3" stroke="none" stroke-width="none" transform="translate(-102.17501068115234,10.468993621826169)" style="fill: rgb(145, 185, 233);"></path></g><g class="path" style="transform: scale(0.91); transform-origin: -30.5156px -3.35156px 0px; animation: 1s linear -0.462s infinite normal forwards running breath-b3c5fc05-469f-4a8f-8163-0fdf22a57ad4;"><path d="M69-14.40L81.68-2.24L79.04 0.48L65.44-12.88L65.44 0L61.64 0L61.64-28L65.44-28L65.44-15.24L77.36-28.12L79.92-25.76L69-14.40" fill="#4284d3" stroke="none" stroke-width="none" transform="translate(-102.17501068115234,10.468993621826169)" style="fill: rgb(66, 132, 211);"></path></g><g class="path" style="transform: scale(0.91); transform-origin: 2.86523px -3.53125px 0px; animation: 1s linear -0.396s infinite normal forwards running breath-b3c5fc05-469f-4a8f-8163-0fdf22a57ad4;"><path d="M95.28-2.36L97.20-5.56L97.20-5.56Q98.64-4.36 100.44-3.60L100.44-3.60L100.44-3.60Q102.24-2.84 104.64-2.84L104.64-2.84L104.64-2.84Q107.52-2.84 109.20-4.04L109.20-4.04L109.20-4.04Q110.88-5.24 110.88-7.28L110.88-7.28L110.88-7.28Q110.88-8.12 110.64-8.84L110.64-8.84L110.64-8.84Q110.40-9.56 109.70-10.22L109.70-10.22L109.70-10.22Q109-10.88 107.74-11.54L107.74-11.54L107.74-11.54Q106.48-12.20 104.48-12.96L104.48-12.96L104.48-12.96Q102.32-13.80 100.82-14.62L100.82-14.62L100.82-14.62Q99.32-15.44 98.40-16.42L98.40-16.42L98.40-16.42Q97.48-17.40 97.08-18.58L97.08-18.58L97.08-18.58Q96.68-19.76 96.68-21.28L96.68-21.28L96.68-21.28Q96.68-22.76 97.30-24.08L97.30-24.08L97.30-24.08Q97.92-25.40 99.14-26.38L99.14-26.38L99.14-26.38Q100.36-27.36 102.14-27.92L102.14-27.92L102.14-27.92Q103.92-28.48 106.20-28.48L106.20-28.48L106.20-28.48Q108.68-28.48 110.64-27.98L110.64-27.98L110.64-27.98Q112.60-27.48 114.52-26.56L114.52-26.56L113.12-23.32L113.12-23.32Q111.76-24.12 109.94-24.66L109.94-24.66L109.94-24.66Q108.12-25.20 106.12-25.20L106.12-25.20L106.12-25.20Q103.48-25.20 101.96-24.18L101.96-24.18L101.96-24.18Q100.44-23.16 100.44-21.48L100.44-21.48L100.44-21.48Q100.44-20.68 100.66-20.06L100.66-20.06L100.66-20.06Q100.88-19.44 101.54-18.86L101.54-18.86L101.54-18.86Q102.20-18.28 103.38-17.68L103.38-17.68L103.38-17.68Q104.56-17.08 106.52-16.36L106.52-16.36L106.52-16.36Q108.84-15.48 110.44-14.56L110.44-14.56L110.44-14.56Q112.04-13.64 113-12.60L113-12.60L113-12.60Q113.96-11.56 114.38-10.36L114.38-10.36L114.38-10.36Q114.80-9.16 114.80-7.72L114.80-7.72L114.80-7.72Q114.80-5.76 114.04-4.24L114.04-4.24L114.04-4.24Q113.28-2.72 111.94-1.66L111.94-1.66L111.94-1.66Q110.60-0.60 108.72-0.06L108.72-0.06L108.72-0.06Q106.84 0.48 104.64 0.48L104.64 0.48L104.64 0.48Q101.72 0.48 99.32-0.30L99.32-0.30L99.32-0.30Q96.92-1.08 95.28-2.36L95.28-2.36" fill="#4284d3" stroke="none" stroke-width="none" transform="translate(-102.17501068115234,10.468993621826169)" style="fill: rgb(145, 185, 233);"></path></g><g class="path" style="transform: scale(0.91); transform-origin: 26.5859px 0.0683594px 0px; animation: 1s linear -0.33s infinite normal forwards running breath-b3c5fc05-469f-4a8f-8163-0fdf22a57ad4;"><path d="M135.44-10.40L135.44-10.40L135.44-10.40Q135.44-11.96 134.94-13.36L134.94-13.36L134.94-13.36Q134.44-14.76 133.54-15.80L133.54-15.80L133.54-15.80Q132.64-16.84 131.42-17.46L131.42-17.46L131.42-17.46Q130.20-18.08 128.76-18.08L128.76-18.08L128.76-18.08Q125.60-18.08 123.84-16L123.84-16L123.84-16Q122.08-13.92 122.08-10.48L122.08-10.48L122.08-10.48Q122.08-8.92 122.58-7.50L122.58-7.50L122.58-7.50Q123.08-6.08 123.98-5.02L123.98-5.02L123.98-5.02Q124.88-3.96 126.10-3.34L126.10-3.34L126.10-3.34Q127.32-2.72 128.76-2.72L128.76-2.72L128.76-2.72Q130.32-2.72 131.56-3.28L131.56-3.28L131.56-3.28Q132.80-3.84 133.66-4.86L133.66-4.86L133.66-4.86Q134.52-5.88 134.98-7.28L134.98-7.28L134.98-7.28Q135.44-8.68 135.44-10.40zM118.40-10.40L118.40-10.40L118.40-10.40Q118.40-12.92 119.20-14.94L119.20-14.94L119.20-14.94Q120-16.96 121.38-18.36L121.38-18.36L121.38-18.36Q122.76-19.76 124.66-20.52L124.66-20.52L124.66-20.52Q126.56-21.28 128.76-21.28L128.76-21.28L128.76-21.28Q130.92-21.28 132.82-20.52L132.82-20.52L132.82-20.52Q134.72-19.76 136.12-18.36L136.12-18.36L136.12-18.36Q137.52-16.96 138.32-14.96L138.32-14.96L138.32-14.96Q139.12-12.96 139.12-10.48L139.12-10.48L139.12-10.48Q139.12-8 138.34-5.98L138.34-5.98L138.34-5.98Q137.56-3.96 136.16-2.52L136.16-2.52L136.16-2.52Q134.76-1.08 132.86-0.30L132.86-0.30L132.86-0.30Q130.96 0.48 128.76 0.48L128.76 0.48L128.76 0.48Q126.52 0.48 124.62-0.32L124.62-0.32L124.62-0.32Q122.72-1.12 121.34-2.56L121.34-2.56L121.34-2.56Q119.96-4 119.18-6L119.18-6L119.18-6Q118.40-8 118.40-10.40" fill="#4284d3" stroke="none" stroke-width="none" transform="translate(-102.17501068115234,10.468993621826169)" style="fill: rgb(66, 132, 211);"></path></g><g class="path" style="transform: scale(0.91); transform-origin: 48.3848px 0.0683594px 0px; animation: 1s linear -0.264s infinite normal forwards running breath-b3c5fc05-469f-4a8f-8163-0fdf22a57ad4;"><path d="M158.28-20.04L157.20-17L157.20-17Q156.04-17.56 155.04-17.82L155.04-17.82L155.04-17.82Q154.04-18.08 152.80-18.08L152.80-18.08L152.80-18.08Q151.40-18.08 150.18-17.56L150.18-17.56L150.18-17.56Q148.96-17.04 148.08-16.06L148.08-16.06L148.08-16.06Q147.20-15.08 146.70-13.68L146.70-13.68L146.70-13.68Q146.20-12.28 146.20-10.48L146.20-10.48L146.20-10.48Q146.20-8.84 146.66-7.44L146.66-7.44L146.66-7.44Q147.12-6.04 147.96-4.98L147.96-4.98L147.96-4.98Q148.80-3.92 149.96-3.32L149.96-3.32L149.96-3.32Q151.12-2.72 152.56-2.72L152.56-2.72L152.56-2.72Q154.08-2.72 155.16-3.04L155.16-3.04L155.16-3.04Q156.24-3.36 157.48-4.04L157.48-4.04L158.60-1L158.60-1Q157.32-0.32 155.80 0.08L155.80 0.08L155.80 0.08Q154.28 0.48 152.32 0.48L152.32 0.48L152.32 0.48Q150.08 0.48 148.28-0.32L148.28-0.32L148.28-0.32Q146.48-1.12 145.20-2.56L145.20-2.56L145.20-2.56Q143.92-4 143.22-6L143.22-6L143.22-6Q142.52-8 142.52-10.40L142.52-10.40L142.52-10.40Q142.52-12.64 143.22-14.62L143.22-14.62L143.22-14.62Q143.92-16.60 145.24-18.08L145.24-18.08L145.24-18.08Q146.56-19.56 148.42-20.42L148.42-20.42L148.42-20.42Q150.28-21.28 152.60-21.28L152.60-21.28L152.60-21.28Q154.40-21.28 155.72-20.96L155.72-20.96L155.72-20.96Q157.04-20.64 158.28-20.04L158.28-20.04" fill="#4284d3" stroke="none" stroke-width="none" transform="translate(-102.17501068115234,10.468993621826169)" style="fill: rgb(145, 185, 233);"></path></g><g class="path" style="transform: scale(0.91); transform-origin: 62.4258px 0.0683594px 0px; animation: 1s linear -0.198s infinite normal forwards running breath-b3c5fc05-469f-4a8f-8163-0fdf22a57ad4;"><path d="M166.40-20.80L166.40 0L162.80 0L162.80-20.80L166.40-20.80" fill="#4284d3" stroke="none" stroke-width="none" transform="translate(-102.17501068115234,10.468993621826169)" style="fill: rgb(66, 132, 211);"></path></g><g class="path" style="transform: scale(0.91); transform-origin: 62.4258px -16.4102px 0px; animation: 1s linear -0.132s infinite normal forwards running breath-b3c5fc05-469f-4a8f-8163-0fdf22a57ad4;"><path d="M164.60-24.36L164.60-24.36L164.60-24.36Q163.56-24.36 162.82-25.10L162.82-25.10L162.82-25.10Q162.08-25.84 162.08-26.88L162.08-26.88L162.08-26.88Q162.08-28.04 162.76-28.72L162.76-28.72L162.76-28.72Q163.44-29.40 164.60-29.40L164.60-29.40L164.60-29.40Q165.64-29.40 166.38-28.66L166.38-28.66L166.38-28.66Q167.12-27.92 167.12-26.88L167.12-26.88L167.12-26.88Q167.12-25.72 166.44-25.04L166.44-25.04L166.44-25.04Q165.76-24.36 164.60-24.36" fill="#4284d3" stroke="none" stroke-width="none" transform="translate(-102.17501068115234,10.468993621826169)" style="fill: rgb(145, 185, 233);"></path></g><g class="path" style="transform: scale(0.91); transform-origin: 79.8652px 0.0683594px 0px; animation: 1s linear -0.066s infinite normal forwards running breath-b3c5fc05-469f-4a8f-8163-0fdf22a57ad4;"><path d="M171.40-10.28L171.40-10.28L171.40-10.28Q171.40-12.60 172.12-14.62L172.12-14.62L172.12-14.62Q172.84-16.64 174.14-18.12L174.14-18.12L174.14-18.12Q175.44-19.60 177.26-20.44L177.26-20.44L177.26-20.44Q179.08-21.28 181.24-21.28L181.24-21.28L181.24-21.28Q183.04-21.28 184.50-20.66L184.50-20.66L184.50-20.66Q185.96-20.04 187.04-19.12L187.04-19.12L187.04-20.80L190.32-20.80L190.32-5.04L190.32-5.04Q190.32-3.52 191.06-3.06L191.06-3.06L191.06-3.06Q191.80-2.60 192.68-2.60L192.68-2.60L191.92 0.20L191.92 0.20Q188.08 0.20 187.28-2.92L187.28-2.92L187.28-2.92Q186.80-2.28 186.18-1.66L186.18-1.66L186.18-1.66Q185.56-1.04 184.76-0.56L184.76-0.56L184.76-0.56Q183.96-0.08 182.96 0.20L182.96 0.20L182.96 0.20Q181.96 0.48 180.76 0.48L180.76 0.48L180.76 0.48Q178.80 0.48 177.10-0.28L177.10-0.28L177.10-0.28Q175.40-1.04 174.14-2.44L174.14-2.44L174.14-2.44Q172.88-3.84 172.14-5.82L172.14-5.82L172.14-5.82Q171.40-7.80 171.40-10.28zM181.56-2.72L181.56-2.72L181.56-2.72Q183.08-2.72 184.44-3.44L184.44-3.44L184.44-3.44Q185.80-4.16 186.72-5.32L186.72-5.32L186.72-16.48L186.72-16.48Q185.64-17.24 184.34-17.70L184.34-17.70L184.34-17.70Q183.04-18.16 181.60-18.16L181.60-18.16L181.60-18.16Q180.16-18.16 178.96-17.60L178.96-17.60L178.96-17.60Q177.76-17.04 176.90-16.02L176.90-16.02L176.90-16.02Q176.04-15 175.56-13.56L175.56-13.56L175.56-13.56Q175.08-12.12 175.08-10.40L175.08-10.40L175.08-10.40Q175.08-8.72 175.56-7.30L175.56-7.30L175.56-7.30Q176.04-5.88 176.92-4.86L176.92-4.86L176.92-4.86Q177.80-3.84 178.98-3.28L178.98-3.28L178.98-3.28Q180.16-2.72 181.56-2.72" fill="#4284d3" stroke="none" stroke-width="none" transform="translate(-102.17501068115234,10.468993621826169)" style="fill: rgb(66, 132, 211);"></path></g><g class="path" style="transform: scale(0.91); transform-origin: 100.426px -4.0918px 0px; animation: 1s linear 0s infinite normal forwards running breath-b3c5fc05-469f-4a8f-8163-0fdf22a57ad4;"><path d="M200.88-29.60L200.88-6.88L200.88-6.88Q200.88-4.72 201.78-3.68L201.78-3.68L201.78-3.68Q202.68-2.64 204.28-2.64L204.28-2.64L204.28-2.64Q205.04-2.64 205.76-2.82L205.76-2.82L205.76-2.82Q206.48-3 207.04-3.24L207.04-3.24L207.92-0.32L207.92-0.32Q207.20 0 206.14 0.24L206.14 0.24L206.14 0.24Q205.08 0.48 203.80 0.48L203.80 0.48L203.80 0.48Q202.40 0.48 201.22 0.08L201.22 0.08L201.22 0.08Q200.04-0.32 199.16-1.16L199.16-1.16L199.16-1.16Q198.28-2 197.78-3.32L197.78-3.32L197.78-3.32Q197.28-4.64 197.28-6.52L197.28-6.52L197.28-29.60L200.88-29.60" fill="#4284d3" stroke="none" stroke-width="none" transform="translate(-102.17501068115234,10.468993621826169)" style="fill: rgb(145, 185, 233);"></path></g></g>
</g>
</g>
<style id="breath-b3c5fc05-469f-4a8f-8163-0fdf22a57ad4" data-anikit="">@keyframes breath-b3c5fc05-469f-4a8f-8163-0fdf22a57ad4
{
  0% {
    animation-timing-function: cubic-bezier(0.9647,0.2413,-0.0705,0.7911);
    transform: scale(0.9099999999999999);
  }
  51% {
    animation-timing-function: cubic-bezier(0.9226,0.2631,-0.0308,0.7628);
    transform: scale(1.02994);
  }
  100% {
    transform: scale(0.9099999999999999);
  }
}</style></svg>