<?xml version="1.0" standalone="no"?>
<!DOCTYPE svg PUBLIC "-//W3C//DTD SVG 20010904//EN"
 "http://www.w3.org/TR/2001/REC-SVG-20010904/DTD/svg10.dtd">
<svg version="1.0" xmlns="http://www.w3.org/2000/svg"
 width="300.000000pt" height="300.000000pt" viewBox="0 0 300.000000 300.000000"
 preserveAspectRatio="xMidYMid meet">
<metadata>
Created by potrace 1.16, written by Peter Selinger 2001-2019
</metadata>
<g transform="translate(0.000000,300.000000) scale(0.100000,-0.100000)"
fill="#4284d3" stroke="none">
<path d="M1290 2904 c-25 -7 -59 -14 -77 -14 -17 0 -35 -4 -38 -10 -3 -5 -13
-10 -22 -10 -54 0 -271 -197 -314 -285 -11 -22 -23 -47 -28 -55 -56 -98 -68
-270 -23 -361 12 -25 22 -55 22 -67 0 -11 5 -24 10 -27 18 -11 10 -42 -15 -59
-23 -15 -25 -21 -20 -74 5 -61 24 -125 43 -144 7 -7 12 -19 12 -28 1 -8 12
-33 25 -55 14 -22 30 -51 36 -65 6 -14 15 -32 20 -40 5 -8 12 -22 15 -30 3 -8
9 -22 14 -31 5 -9 12 -34 16 -55 4 -23 23 -59 47 -87 38 -46 39 -50 34 -99 -4
-27 -11 -56 -17 -63 -26 -31 -96 -57 -178 -65 -47 -5 -90 -14 -96 -20 -5 -5
-22 -10 -37 -10 -15 0 -32 -7 -39 -15 -7 -8 -22 -15 -33 -15 -11 0 -34 -10
-51 -23 -17 -12 -44 -29 -61 -37 -16 -8 -37 -19 -45 -25 -19 -14 -73 -31 -124
-40 -21 -3 -47 -11 -57 -16 -11 -5 -28 -13 -39 -19 -11 -6 -31 -10 -45 -10
-42 0 -102 -37 -165 -102 l-60 -61 0 -394 0 -393 1500 0 1500 0 0 411 0 410
-32 27 c-50 43 -82 62 -103 62 -11 0 -47 16 -80 36 -59 36 -85 46 -175 65 -24
5 -49 14 -54 19 -6 6 -19 10 -30 10 -10 0 -45 25 -77 55 -32 30 -67 55 -78 55
-11 0 -23 4 -26 10 -3 5 -21 10 -38 10 -39 0 -143 32 -159 48 -7 7 -17 12 -23
12 -14 0 -75 62 -75 77 0 6 -7 16 -15 23 -22 18 -19 89 5 120 11 14 20 37 20
52 0 15 5 30 10 33 6 3 10 21 10 39 0 22 8 40 25 56 14 13 25 31 25 39 0 9 13
32 28 51 18 23 35 63 47 115 10 44 27 92 37 107 26 38 23 82 -7 102 -21 14
-25 24 -25 66 0 28 9 76 20 107 23 65 25 109 9 198 -9 51 -19 72 -66 130 -30
39 -91 106 -134 151 -64 64 -90 84 -135 99 -30 10 -59 24 -65 31 -6 8 -27 16
-48 19 -20 4 -46 11 -58 16 -13 5 -33 13 -45 18 -98 40 -310 53 -398 25z"/>
</g>
</svg>
