<?xml version="1.0" standalone="no"?>
<!DOCTYPE svg PUBLIC "-//W3C//DTD SVG 20010904//EN"
 "http://www.w3.org/TR/2001/REC-SVG-20010904/DTD/svg10.dtd">
<svg version="1.0" xmlns="http://www.w3.org/2000/svg"
 width="720.000000pt" height="828.000000pt" viewBox="0 0 720.000000 828.000000"
 preserveAspectRatio="xMidYMid meet">

<g transform="translate(0.000000,828.000000) scale(0.100000,-0.100000)" stroke="none">
<path d="M3755 8100 c-3 -5 -24 -10 -45 -10 -22 0 -55 -9 -75 -20 -20 -11 -43
-20 -52 -20 -10 0 -31 -14 -49 -31 l-31 -30 -37 20 c-29 17 -54 21 -124 21
-101 0 -162 -23 -222 -85 -25 -26 -42 -35 -66 -35 -18 0 -36 -4 -39 -10 -3 -5
-28 -10 -54 -10 -82 0 -144 -45 -154 -111 -4 -26 -18 -49 -49 -78 -40 -38 -47
-41 -103 -41 -121 -1 -132 -5 -165 -74 -41 -86 -55 -97 -146 -107 -72 -8 -81
-11 -119 -49 -22 -22 -45 -40 -50 -40 -16 0 -65 -53 -65 -71 0 -11 -11 -20
-30 -24 -17 -4 -45 -14 -63 -23 -17 -9 -75 -23 -127 -32 l-95 -15 -8 -60 c-9
-73 -22 -151 -38 -228 -10 -54 -14 -59 -53 -76 -28 -14 -45 -30 -55 -53 -8
-18 -26 -46 -40 -63 -37 -43 -51 -71 -51 -102 0 -19 -13 -41 -42 -70 -42 -43
-43 -43 -113 -43 -65 0 -74 -2 -98 -28 -26 -27 -27 -31 -27 -153 0 -81 4 -129
12 -137 14 -14 -6 -42 -32 -42 -23 0 -107 -43 -136 -71 -22 -21 -24 -30 -24
-114 0 -109 22 -164 95 -235 41 -40 45 -49 45 -91 0 -27 -5 -51 -10 -54 -6 -3
-10 -48 -10 -99 0 -91 0 -92 -32 -123 -22 -21 -45 -33 -68 -35 -30 -3 -35 -7
-38 -31 -2 -16 2 -35 9 -44 8 -8 13 -25 14 -37 0 -14 7 -22 24 -24 37 -6 86
-37 89 -58 7 -38 32 -80 72 -119 23 -22 50 -58 60 -81 11 -22 26 -47 35 -54
12 -10 15 -38 15 -155 0 -129 2 -144 20 -160 16 -15 20 -31 20 -88 0 -52 5
-75 20 -96 16 -23 19 -43 17 -109 -1 -53 3 -86 11 -94 7 -7 12 -27 12 -44 0
-18 5 -36 10 -39 6 -3 10 -26 10 -50 0 -24 5 -47 10 -50 6 -3 10 -21 10 -40 0
-19 5 -37 10 -40 5 -3 10 -16 10 -28 0 -21 -3 -22 -91 -19 -99 4 -129 -9 -129
-53 0 -12 -9 -30 -20 -40 -17 -15 -20 -31 -20 -96 0 -43 5 -81 10 -84 6 -3 10
-17 10 -30 0 -13 4 -27 10 -30 6 -4 10 -75 10 -180 0 -105 4 -176 10 -180 5
-3 10 -21 10 -40 0 -19 5 -37 10 -40 5 -3 10 -15 10 -25 0 -11 9 -35 20 -55
11 -20 20 -44 20 -55 0 -10 5 -22 10 -25 5 -3 10 -21 11 -38 1 -39 28 -88 56
-102 12 -6 29 -17 38 -25 9 -8 27 -19 39 -25 11 -6 22 -22 24 -36 2 -15 16
-39 33 -55 18 -18 29 -38 29 -56 0 -15 9 -43 20 -63 11 -20 20 -54 20 -79 0
-49 18 -92 55 -126 14 -13 25 -34 25 -46 0 -13 5 -26 10 -29 6 -3 10 -28 10
-54 0 -49 19 -99 45 -121 8 -7 15 -23 15 -36 0 -12 5 -26 10 -29 6 -3 10 -26
10 -50 0 -24 5 -47 10 -50 6 -3 10 -17 10 -30 0 -13 5 -27 10 -30 6 -3 10 -25
10 -49 0 -30 6 -48 20 -61 11 -10 20 -26 20 -36 0 -10 9 -34 20 -54 11 -20 20
-44 20 -55 0 -10 5 -22 10 -25 6 -3 10 -16 10 -29 0 -13 9 -31 20 -41 11 -10
20 -23 20 -30 0 -7 9 -20 20 -30 11 -10 20 -28 20 -41 0 -13 5 -26 10 -29 6
-3 10 -16 10 -29 0 -12 17 -38 40 -61 22 -21 40 -48 40 -60 0 -12 18 -39 40
-60 22 -21 40 -44 40 -50 0 -6 23 -33 50 -60 28 -27 50 -58 50 -69 0 -22 47
-76 65 -76 13 0 43 -33 63 -67 6 -13 12 -44 12 -71 0 -42 4 -52 38 -85 21 -20
42 -37 48 -37 5 0 54 -45 109 -100 79 -79 106 -100 127 -100 28 0 58 -13 90
-39 27 -22 150 -81 168 -81 9 0 25 -9 35 -20 11 -12 31 -20 51 -20 18 0 36 -5
39 -10 3 -6 21 -10 40 -10 19 0 37 -4 40 -10 3 -5 17 -10 30 -10 13 0 27 -4
30 -10 3 -6 52 -10 110 -10 58 0 107 -4 110 -10 8 -13 162 -13 170 0 3 6 44
10 90 10 46 0 87 5 90 10 3 5 26 10 50 10 24 0 47 5 50 10 3 6 19 10 36 10 43
0 129 56 129 85 0 13 62 75 76 75 13 0 204 193 204 206 0 6 9 19 20 29 11 10
20 28 20 39 0 13 30 51 80 101 49 49 80 88 80 100 0 12 16 37 36 56 19 18 44
52 54 74 10 22 28 49 40 60 11 10 34 46 50 79 16 34 45 77 64 95 24 23 36 44
36 62 0 14 18 61 40 104 22 43 40 85 40 95 0 9 9 25 20 35 11 10 20 26 20 36
0 10 9 34 20 54 11 20 20 44 20 55 0 10 5 22 10 25 6 3 10 17 10 30 0 13 5 27
10 30 6 3 10 21 10 40 0 19 5 37 10 40 6 3 10 21 10 40 0 19 5 37 10 40 6 3
10 26 10 50 0 24 5 47 10 50 6 3 10 35 10 70 0 35 5 67 10 70 6 3 10 39 10 80
0 41 5 77 10 80 6 3 10 48 10 99 0 80 3 95 20 111 11 10 20 23 20 29 0 6 41
52 90 101 50 49 90 95 90 101 0 6 9 19 20 29 11 10 20 26 20 36 0 9 14 43 30
74 17 31 30 63 30 71 0 7 9 29 20 49 11 20 20 44 20 55 0 10 5 22 10 25 6 3
10 17 10 30 0 13 4 27 10 30 6 3 10 21 10 39 0 17 6 38 13 45 9 9 12 71 12
241 0 170 -3 232 -12 241 -7 7 -13 23 -13 34 0 12 -14 34 -31 51 -29 28 -33
29 -129 29 -66 0 -103 -4 -112 -13 -19 -19 -25 -15 -38 34 -10 34 -10 48 -1
57 6 6 11 34 11 62 0 41 5 56 23 73 13 12 28 22 34 22 17 0 43 35 43 58 0 11
5 24 10 27 6 3 10 21 10 40 0 19 5 37 10 40 6 3 10 26 10 50 0 24 5 47 10 50
6 3 10 35 10 70 0 35 5 67 10 70 6 3 10 17 10 30 0 13 4 27 10 30 14 9 13 535
-2 552 -8 10 -8 17 0 25 8 8 12 56 12 140 0 109 3 133 20 163 16 29 20 54 20
135 0 55 4 102 10 105 6 3 10 26 10 50 0 24 5 47 10 50 6 3 10 25 10 49 0 30
6 48 20 61 18 16 20 31 20 123 0 95 -2 108 -22 129 l-21 23 23 25 c13 14 29
25 35 25 14 0 85 72 85 86 0 5 18 28 40 49 22 21 40 44 40 50 0 7 9 20 20 30
16 15 20 31 20 84 l0 67 -50 49 c-42 41 -50 55 -50 86 0 23 7 42 20 54 15 14
20 31 20 74 0 55 -2 58 -50 106 -28 28 -50 58 -50 70 0 12 -22 42 -50 70 -27
27 -50 54 -50 61 0 24 -37 44 -82 44 -54 0 -106 24 -118 54 -4 11 -42 55 -84
96 -46 45 -76 83 -76 95 0 12 -22 42 -50 70 -46 46 -50 53 -50 97 0 51 -10 76
-49 121 -21 22 -33 27 -73 27 -27 0 -58 6 -71 13 -34 19 -67 49 -67 62 0 7 -8
19 -18 28 -15 14 -49 16 -237 16 -137 0 -222 4 -229 11 -5 5 -20 10 -31 10
-12 0 -30 9 -40 20 -11 12 -31 20 -50 20 -19 0 -39 8 -50 20 -10 11 -28 20
-41 20 -13 0 -26 5 -29 10 -3 6 -30 10 -59 10 -40 0 -57 5 -71 20 -13 15 -31
20 -66 20 -30 0 -62 8 -84 20 -38 21 -139 28 -150 10z m112 -41 c6 -6 39 -13
74 -16 40 -4 73 -13 88 -24 14 -12 40 -19 65 -19 47 0 99 -17 136 -42 13 -10
35 -18 48 -18 13 0 35 -9 49 -20 14 -11 33 -20 42 -20 10 0 21 -4 27 -9 7 -8
101 -16 259 -22 17 0 64 3 107 6 l76 8 31 -44 c37 -52 82 -79 130 -79 41 0 93
-30 122 -71 17 -24 20 -39 15 -72 -6 -41 -5 -44 49 -97 30 -30 55 -63 55 -73
0 -11 36 -56 80 -101 44 -45 80 -86 80 -90 0 -25 67 -56 122 -56 41 0 78 -21
78 -44 0 -7 23 -34 50 -61 28 -27 50 -58 50 -68 0 -10 23 -42 50 -71 55 -58
61 -84 30 -123 -31 -40 -28 -127 7 -178 15 -22 33 -46 40 -53 31 -32 34 -51
14 -89 -11 -21 -30 -49 -43 -63 -13 -14 -35 -41 -50 -61 -14 -20 -54 -63 -87
-96 -69 -68 -73 -84 -41 -158 25 -59 25 -115 0 -165 -11 -22 -20 -49 -20 -60
0 -12 -6 -34 -14 -49 -9 -17 -18 -84 -24 -177 -7 -103 -15 -158 -26 -179 -12
-22 -16 -58 -16 -138 0 -60 -5 -129 -11 -154 -9 -35 -9 -61 1 -115 11 -55 11
-82 2 -124 -8 -40 -8 -87 0 -174 9 -110 9 -124 -11 -186 -12 -37 -21 -81 -21
-99 0 -40 -37 -215 -59 -280 -12 -35 -27 -57 -52 -73 l-34 -24 -4 54 c-1 29 3
130 9 224 26 349 -7 866 -65 1027 -14 38 -32 101 -41 140 -36 160 -87 238
-233 359 l-64 53 -161 9 c-139 8 -172 7 -252 -9 -104 -20 -240 -18 -547 11
-116 11 -218 14 -325 10 -87 -3 -265 -10 -397 -15 -220 -8 -247 -11 -320 -35
-44 -15 -118 -36 -165 -47 -80 -20 -89 -24 -150 -83 -36 -35 -84 -75 -107 -89
-48 -30 -52 -36 -73 -98 -28 -82 -83 -158 -180 -252 -52 -51 -101 -105 -108
-122 -7 -16 -47 -81 -90 -143 -68 -102 -90 -125 -202 -217 -69 -57 -162 -139
-206 -182 -73 -69 -83 -83 -88 -123 -7 -47 -63 -161 -82 -167 -13 -4 -24 42
-24 104 0 24 -9 61 -20 83 -17 33 -20 59 -20 163 0 112 -2 128 -22 158 -13 19
-29 46 -37 61 -8 15 -36 51 -62 80 -27 29 -49 60 -49 69 0 27 -38 67 -70 74
-17 4 -27 11 -24 17 3 5 -3 16 -15 24 -30 22 -26 32 18 44 22 6 50 21 63 35
20 21 23 35 24 107 1 46 5 120 9 165 4 45 5 92 2 105 -4 13 -27 46 -52 73 -57
62 -75 97 -82 157 -4 36 -1 54 12 75 30 45 84 83 137 96 33 9 78 45 78 63 0 8
-11 32 -25 52 -21 31 -25 48 -25 113 0 74 1 77 35 107 31 29 41 32 96 32 59 0
63 2 105 44 33 33 44 51 44 75 0 35 14 63 48 99 12 13 30 41 39 61 12 27 27
42 55 54 21 10 40 23 42 30 20 72 46 210 46 238 0 20 3 50 6 67 6 28 11 32 53
37 75 10 172 35 195 50 11 8 30 15 42 15 15 0 24 8 28 24 3 14 20 35 36 48 17
13 53 42 81 66 45 38 55 42 107 43 35 0 68 7 87 18 26 15 73 84 91 133 8 22
34 28 124 28 73 0 77 1 113 35 21 20 41 33 46 31 5 -3 11 17 14 44 9 76 57
115 152 124 91 8 135 23 169 56 86 82 197 102 301 55 58 -27 62 -27 104 12 55
52 277 103 308 72z m-1412 -4009 l231 -230 228 230 c125 126 232 227 237 224
14 -8 3 -22 -74 -94 -37 -35 -136 -136 -219 -223 l-151 -158 206 -208 c114
-114 207 -210 207 -213 0 -33 -50 8 -231 188 l-210 209 -250 -252 c-137 -139
-252 -253 -254 -253 -25 0 22 54 235 271 l250 254 -231 231 c-201 202 -244
254 -211 254 3 0 110 -104 237 -230z m1850 0 l231 -230 228 230 c125 126 232
227 237 224 14 -8 3 -22 -74 -94 -37 -35 -136 -136 -219 -223 l-151 -158 206
-208 c114 -114 207 -210 207 -213 0 -33 -50 8 -231 188 l-210 209 -250 -252
c-137 -139 -252 -253 -254 -253 -25 0 22 54 235 271 l250 254 -231 231 c-201
202 -244 254 -211 254 3 0 110 -104 237 -230z m65 -2465 c0 -8 -4 -15 -8 -15
-4 0 -318 -18 -696 -40 -378 -22 -692 -40 -697 -40 -5 0 -9 7 -9 15 0 10 10
15 28 16 15 0 311 17 657 38 763 46 725 45 725 26z"/>
</g>
</svg>
